<?xml version="1.0" encoding="utf-8"?>
<!-- Generator: Adobe Illustrator 21.0.0, SVG Export Plug-In . SVG Version: 6.00 Build 0)  -->
<svg version="1.1" id="Layer_1" xmlns="http://www.w3.org/2000/svg" xmlns:xlink="http://www.w3.org/1999/xlink" x="0px" y="0px"
	 viewBox="0 0 350 350" style="enable-background:new 0 0 350 350;" xml:space="preserve">
<style type="text/css">
	.st0{fill-rule:evenodd;clip-rule:evenodd;fill:#181738;}
	.st1{fill-rule:evenodd;clip-rule:evenodd;fill:#1499D6;}
	.st2{fill:none;stroke:#FFFFFF;stroke-width:2.1609;stroke-miterlimit:22.9256;}
	.st3{fill-rule:evenodd;clip-rule:evenodd;fill:#1FAACD;}
	.st4{fill:none;stroke:#FFFFFF;stroke-width:2.1592;stroke-miterlimit:22.9256;}
	.st5{fill-rule:evenodd;clip-rule:evenodd;fill:#30BFC8;}
	.st6{fill-rule:evenodd;clip-rule:evenodd;fill:#67BF75;}
	.st7{fill-rule:evenodd;clip-rule:evenodd;fill:#95C93D;}
	.st8{fill-rule:evenodd;clip-rule:evenodd;fill:#BDBB20;}
	.st9{fill-rule:evenodd;clip-rule:evenodd;fill:#EFAB18;}
	.st10{fill-rule:evenodd;clip-rule:evenodd;fill:#F0943D;}
	.st11{fill-rule:evenodd;clip-rule:evenodd;fill:#ED7A6D;}
	.st12{fill-rule:evenodd;clip-rule:evenodd;fill:#B0738C;}
	.st13{fill-rule:evenodd;clip-rule:evenodd;fill:#7C78B8;}
	.st14{fill:#FFFFFF;}
	.st15{font-family:'Verdana';}
	.st16{font-size:13.6801px;}
</style>
<path class="st0" d="M304.1,262.8v-9c0-1.7-0.6-2.6-1.9-2.6c-1.3,0-1.9,0.9-1.9,2.6v9H304.1z M300.3,266.2v11.1
	c0,1.5,0.3,2.6,0.9,3.5c0.6,0.8,1.3,1.3,2.2,1.3c1.4,0,2.5-0.6,3.3-1.8c0.8-1.2,1.3-2.8,1.3-4.8c0-1.1,0.1-1.8,0.3-2
	c0.2-0.2,0.9-0.3,2-0.3c1,0,1.6,0.1,1.9,0.3c0.3,0.2,0.4,0.7,0.4,1.5c0,2.8-0.9,5.3-2.7,7.5c-1.8,2.2-4.2,3.3-7.2,3.3
	c-3.4,0-6.4-1.6-8.8-4.7c-2.4-3.1-3.6-7.8-3.6-14.1c0-6.3,1.1-11.1,3.3-14.3c2.2-3.3,5.1-4.9,8.7-4.9c3.1,0,5.6,1.4,7.5,4.2
	c1.9,2.8,2.8,6.7,2.8,11.8v2.5H300.3z M276.4,251.9h-1.1c-0.3,0-0.5,0-0.6-0.1c-0.1-0.1-0.1-0.3-0.1-0.6v-2c0-0.4,0-0.6,0.1-0.7
	c0.1-0.1,0.3-0.2,0.7-0.2c1.3-0.2,2.6-0.9,4-2.2c1.3-1.2,2.1-2.6,2.4-4c0.1-0.5,0.2-0.8,0.3-0.9c0.1-0.1,0.4-0.2,0.8-0.2h1.8
	c0.5,0,0.7,0.3,0.7,0.9v6.3h1.7c0.6,0,0.9,0.3,0.9,0.9v2c0,0.6-0.3,0.9-0.9,0.9h-1.7v28.3c0,1,0.4,1.7,1.3,2.1
	c0.4,0.2,0.7,0.4,0.8,0.7c0.1,0.3,0.2,0.8,0.2,1.6c0,0.5,0,0.7-0.1,0.8c-0.1,0.1-0.3,0.1-0.7,0.1h-8.6c-1.3-1.2-2-2.9-2-5.3V251.9z
	 M260.6,250.9V249c0-0.6,0.4-0.9,1.1-0.9h8.6c0.6,0,0.9,0.3,0.9,0.9v31.4c0,0.4,0,0.7,0.1,0.8c0,0.1,0.2,0.3,0.5,0.4
	c0.6,0.3,0.9,0.8,0.9,1.7c0,1,0,1.6-0.1,1.8c-0.1,0.2-0.4,0.3-0.9,0.3h-10.5c-0.3,0-0.4-0.1-0.5-0.3c-0.1-0.2-0.1-0.7-0.1-1.5
	c0-1,0.2-1.6,0.7-1.7c0.5-0.2,0.8-0.6,0.8-1.1v-27.2c0-1.1-0.4-1.7-1.1-1.9C260.8,251.6,260.6,251.3,260.6,250.9z M268.1,240.4
	c2.1,0,3.1,0.7,3.1,2.1c0,1.1-0.7,2-2.1,2.8c-1.4,0.8-2.9,1.1-4.7,1.1c-2.3,0-3.4-0.8-3.4-2.3c0-1.2,0.8-2.1,2.4-2.8
	C265,240.7,266.6,240.4,268.1,240.4z M243.8,251.6c2.8-2.6,5.2-3.8,7.3-3.8c1.6,0,2.9,0.6,4.1,1.8c1.2,1.2,1.8,2.7,1.8,4.6v26
	c0,0.7,0.2,1.2,0.6,1.4c0.5,0.4,0.8,1,0.8,1.8c0,0.9-0.1,1.4-0.2,1.7c-0.1,0.2-0.4,0.4-0.9,0.4h-7c-0.6,0-1.2-0.4-1.7-1.3
	c-0.5-0.9-0.8-1.9-0.8-3.1v-25.4c0-0.5-0.2-0.9-0.5-1.3c-0.3-0.4-0.7-0.6-1.1-0.6c-0.7,0-1.5,0.4-2.5,1.3v25.2
	c0,0.6,0.3,1.1,0.8,1.6c0.5,0.5,0.8,0.9,0.8,1.3c0,1.3,0,2-0.1,2.1c-0.1,0.2-0.4,0.3-1.1,0.3h-9.8c-0.4,0-0.7-0.1-0.8-0.3
	c-0.1-0.2-0.2-0.6-0.2-1.2c0-0.8,0-1.3,0.1-1.5c0.1-0.2,0.3-0.5,0.6-0.7c0.5-0.4,0.8-0.9,0.8-1.6v-33.5c0-1.2-0.4-1.9-1.1-2
	c-0.4-0.1-0.6-0.3-0.6-0.7v-1.9c0-0.4,0.2-0.6,0.7-0.6h9.1c0.7,0,1,0.3,1,1V251.6z M210.4,254.2l-1.3-7.1c-0.1-0.7-0.5-1.3-1.1-1.9
	c-0.4-0.4-0.6-0.8-0.6-1.1v-1.9c0-0.5,0.3-0.8,0.8-0.8h11.2c0.4,0,0.6,0.1,0.7,0.3c0.1,0.2,0.1,0.6,0.1,1.2c0,1,0,1.5-0.1,1.7
	c-0.1,0.2-0.3,0.4-0.7,0.6c-0.5,0.3-0.8,0.6-0.8,0.9c0,0.4,0.1,0.9,0.2,1.7l3.1,17.5l3.3-18.1c0-0.2,0-0.4,0-0.6
	c0-0.8-0.5-1.5-1.4-1.9c-0.5-0.2-0.7-0.8-0.7-1.9c0-0.3,0-0.5,0-0.6V242c0-0.4,0.3-0.7,1-0.7h6.3c0.4,0,0.7,0.1,0.8,0.2
	c0.1,0.1,0.2,0.5,0.2,1c0,0.2,0,0.3,0,0.5l-0.1,1.1c-0.1,0.4-0.4,0.8-0.9,1.1c-0.5,0.3-0.8,0.9-1,1.7l-6.6,36
	c-0.3,1.4-0.5,2.3-0.6,2.5c-0.2,0.3-0.5,0.4-0.9,0.4h-4.6c-0.5,0-0.8-0.5-0.9-1.6c0-0.2,0-0.4-0.1-0.5l-3.5-19.3l-3.4,19.6
	c-0.1,0.8-0.3,1.3-0.4,1.4c-0.1,0.2-0.4,0.3-0.7,0.3h-4.8c-0.5,0-0.9-1-1.2-2.9c0-0.3-0.1-0.6-0.1-0.8l-6.5-35.3
	c-0.1-0.7-0.5-1.3-1.1-1.6c-0.5-0.3-0.8-0.7-0.8-1.2V242c0-0.4,0.3-0.6,0.8-0.6h10.8c0.4,0,0.6,0.1,0.8,0.3c0.1,0.2,0.2,0.6,0.2,1.3
	c0,0.8,0,1.3-0.1,1.5c-0.1,0.2-0.2,0.4-0.5,0.7c-0.4,0.4-0.5,0.7-0.5,1.1c0,0.4,0,0.9,0.2,1.6l3.4,18.6L210.4,254.2z M163,251.8
	c2.2-2.7,4.7-4.1,7.5-4.1c1.9,0,3.4,0.6,4.4,1.8c1,1.2,1.5,2.8,1.5,4.6v26.1c0,0.6,0.2,1,0.7,1.3c0.4,0.3,0.6,0.9,0.6,2
	c0,0.8-0.1,1.3-0.2,1.5c-0.1,0.2-0.4,0.2-0.9,0.2h-7.6c-1.1-0.9-1.6-2.1-1.6-3.6v-26c0-1.4-0.6-2.1-1.8-2.1c-0.8,0-1.6,0.4-2.5,1.2
	v25.5c0,0.7,0.3,1.2,0.9,1.5c0.4,0.2,0.6,0.6,0.6,1.2v1.4c0,0.6-0.4,0.9-1.3,0.9h-9.6c-0.5,0-0.8-0.1-0.9-0.2
	c-0.1-0.1-0.2-0.5-0.2-1v-1c0-0.5,0.2-0.9,0.5-1.1c0.4-0.3,0.7-0.6,0.8-0.9c0.1-0.3,0.2-0.9,0.2-1.8v-26.7c0-0.6-0.3-1.1-0.9-1.4
	c-0.3-0.2-0.5-0.5-0.5-0.9V249c0-0.6,0.3-0.8,0.8-0.8h8.9c0.4,0,0.6,0.1,0.7,0.2c0.1,0.1,0.1,0.3,0.1,0.7V251.8z M135.8,243.7v-1.4
	c0-0.6,0.3-0.8,0.9-0.8h13.1c0.5,0,0.8,0.1,1,0.2c0.1,0.1,0.2,0.5,0.2,1.1c0,1,0,1.6-0.1,1.8c-0.1,0.2-0.3,0.4-0.7,0.4
	c-1.1,0.2-1.7,0.9-1.7,2.2V280c0,0.7,0.4,1.2,1.2,1.6c0.5,0.3,0.8,0.5,0.9,0.7c0.1,0.2,0.2,0.5,0.2,1v1c0,0.6-0.1,0.9-0.2,1
	c-0.1,0.1-0.4,0.1-0.8,0.1h-13.3c-0.5,0-0.8-0.2-0.8-0.6c0-1.3,0-2.1,0.1-2.4c0.1-0.3,0.4-0.5,0.9-0.7c1-0.3,1.5-0.8,1.5-1.6v-32.4
	c0-0.8-0.1-1.3-0.3-1.7c-0.2-0.4-0.6-0.7-1.2-1c-0.5-0.2-0.7-0.4-0.8-0.5C135.8,244.4,135.8,244.1,135.8,243.7z M105.6,251.8
	c2.2-2.7,4.7-4.1,7.5-4.1c1.9,0,3.4,0.6,4.4,1.8c1,1.2,1.5,2.8,1.5,4.6v26.1c0,0.6,0.2,1,0.7,1.3c0.4,0.3,0.6,0.9,0.6,2
	c0,0.8-0.1,1.3-0.2,1.5c-0.1,0.2-0.4,0.2-0.9,0.2h-7.6c-1.1-0.9-1.6-2.1-1.6-3.6v-26c0-1.4-0.6-2.1-1.8-2.1c-0.8,0-1.6,0.4-2.5,1.2
	v25.5c0,0.7,0.3,1.2,0.9,1.5c0.4,0.2,0.6,0.6,0.6,1.2v1.4c0,0.6-0.4,0.9-1.3,0.9h-9.6c-0.5,0-0.8-0.1-0.9-0.2
	c-0.1-0.1-0.2-0.5-0.2-1v-1c0-0.5,0.2-0.9,0.5-1.1c0.4-0.3,0.7-0.6,0.8-0.9c0.1-0.3,0.2-0.9,0.2-1.8v-26.7c0-0.6-0.3-1.1-0.9-1.4
	c-0.3-0.2-0.5-0.5-0.5-0.9V249c0-0.6,0.3-0.8,0.8-0.8h8.9c0.4,0,0.6,0.1,0.7,0.2c0.1,0.1,0.1,0.3,0.1,0.7V251.8z M84.1,262.8v-9
	c0-1.7-0.6-2.6-1.9-2.6c-1.3,0-1.9,0.9-1.9,2.6v9H84.1z M80.3,266.2v11.1c0,1.5,0.3,2.6,0.9,3.5c0.6,0.8,1.3,1.3,2.2,1.3
	c1.4,0,2.5-0.6,3.3-1.8c0.8-1.2,1.3-2.8,1.3-4.8c0-1.1,0.1-1.8,0.3-2c0.2-0.2,0.9-0.3,2-0.3c1,0,1.6,0.1,1.9,0.3
	c0.3,0.2,0.4,0.7,0.4,1.5c0,2.8-0.9,5.3-2.7,7.5c-1.8,2.2-4.2,3.3-7.2,3.3c-3.4,0-6.4-1.6-8.8-4.7c-2.4-3.1-3.6-7.8-3.6-14.1
	c0-6.3,1.1-11.1,3.3-14.3c2.2-3.3,5.1-4.9,8.7-4.9c3.1,0,5.6,1.4,7.5,4.2c1.9,2.8,2.8,6.7,2.8,11.8v2.5H80.3z M57.2,241.4h9.7
	c0.7,0,1.1,0.1,1.3,0.3c0.2,0.2,0.3,0.7,0.3,1.5c0,0.7-0.1,1.2-0.2,1.5s-0.5,0.5-1,0.8c-0.5,0.2-0.8,0.5-0.9,0.7
	c-0.1,0.3-0.2,0.7-0.2,1.3v32.4c0,0.5,0.1,0.8,0.2,1c0.1,0.2,0.4,0.4,0.9,0.7c0.7,0.3,1,0.8,1,1.3c0,1.4,0,2.2-0.1,2.4
	c-0.1,0.2-0.4,0.2-0.9,0.2H55c-0.5,0-0.8-0.4-0.8-1.3c0-0.8,0-1.3,0.1-1.7c0.1-0.4,0.4-0.7,1-0.9c0.7-0.3,1-0.8,1-1.4v-23l-4.9,18.5
	h-3l-4.9-18v22.3c0,0.7,0.3,1.3,1,1.6c0.8,0.4,1.2,1.1,1.2,2.1c0,1.2-0.4,1.8-1.2,1.8h-5.9c-0.7,0-1-0.6-1-1.7
	c0-0.8,0.3-1.4,0.8-1.8c0.4-0.3,0.7-0.6,0.8-0.8c0.1-0.2,0.2-0.6,0.2-1.1v-31.5c0-0.9-0.1-1.5-0.2-2c-0.1-0.5-0.5-0.8-1-1.1
	c-0.5-0.3-0.8-0.6-0.8-0.9l0-1.2c0-0.8,0.1-1.4,0.2-1.6c0.1-0.2,0.3-0.3,0.7-0.3h10.1l4.4,16.8L57.2,241.4z"/>
<rect x="79.4" y="74" transform="matrix(0.2588 -0.9659 0.9659 0.2588 -73.63 208.8781)" class="st1" width="39.8" height="156.8"/>
<rect x="79.4" y="74" transform="matrix(0.2588 -0.9659 0.9659 0.2588 -73.63 208.8781)" class="st2" width="39.8" height="156.8"/>
<path class="st3" d="M34.3,113.6c6.4-11.1,12.8-22.2,19.2-33.3c43.7,25.2,87.4,50.5,131.1,75.7c-6.4,11.1-12.8,22.2-19.2,33.3
	C121.7,164.1,78,138.9,34.3,113.6z"/>
<path class="st4" d="M34.3,113.6c6.4-11.1,12.8-22.2,19.2-33.3c43.7,25.2,87.4,50.5,131.1,75.7c-6.4,11.1-12.8,22.2-19.2,33.3
	C121.7,164.1,78,138.9,34.3,113.6z"/>
<rect x="99.7" y="38.9" transform="matrix(0.7071 -0.7071 0.7071 0.7071 -47.9065 118.904)" class="st5" width="39.8" height="156.8"/>
<rect x="99.7" y="38.9" transform="matrix(0.7071 -0.7071 0.7071 0.7071 -47.9065 118.904)" class="st2" width="39.8" height="156.8"/>
<path class="st6" d="M82.7,51.2c11.1-6.4,22.2-12.8,33.3-19.2c25.2,43.7,50.5,87.4,75.7,131.1c-11.1,6.4-22.2,12.8-33.3,19.2
	C133.1,138.6,107.9,94.9,82.7,51.2z"/>
<path class="st4" d="M82.7,51.2c11.1-6.4,22.2-12.8,33.3-19.2c25.2,43.7,50.5,87.4,75.7,131.1c-11.1,6.4-22.2,12.8-33.3,19.2
	C133.1,138.6,107.9,94.9,82.7,51.2z"/>
<rect x="134.8" y="18.6" transform="matrix(0.9659 -0.2588 0.2588 0.9659 -19.8321 43.3471)" class="st7" width="39.8" height="156.8"/>
<rect x="134.8" y="18.6" transform="matrix(0.9659 -0.2588 0.2588 0.9659 -19.8321 43.3471)" class="st2" width="39.8" height="156.8"/>
<path class="st8" d="M155.8,21.3c12.8,0,25.6,0,38.4,0c0,50.5,0,100.9,0,151.4c-12.8,0-25.6,0-38.4,0
	C155.8,122.2,155.8,71.8,155.8,21.3z"/>
<path class="st4" d="M155.8,21.3c12.8,0,25.6,0,38.4,0c0,50.5,0,100.9,0,151.4c-12.8,0-25.6,0-38.4,0
	C155.8,122.2,155.8,71.8,155.8,21.3z"/>
<rect x="116.9" y="77.1" transform="matrix(0.2588 -0.9659 0.9659 0.2588 51.053 260.5233)" class="st9" width="156.8" height="39.8"/>
<rect x="116.9" y="77.1" transform="matrix(0.2588 -0.9659 0.9659 0.2588 51.053 260.5233)" class="st2" width="156.8" height="39.8"/>
<path class="st10" d="M234.1,32c11.1,6.4,22.2,12.8,33.3,19.2c-25.2,43.7-50.5,87.4-75.7,131.1c-11.1-6.4-22.2-12.8-33.3-19.2
	C183.6,119.4,208.8,75.7,234.1,32z"/>
<path class="st4" d="M234.1,32c11.1,6.4,22.2,12.8,33.3,19.2c-25.2,43.7-50.5,87.4-75.7,131.1c-11.1-6.4-22.2-12.8-33.3-19.2
	C183.6,119.4,208.8,75.7,234.1,32z"/>
<rect x="152" y="97.4" transform="matrix(0.7071 -0.7071 0.7071 0.7071 -15.4404 197.2855)" class="st11" width="156.8" height="39.8"/>
<rect x="152" y="97.4" transform="matrix(0.7071 -0.7071 0.7071 0.7071 -15.4404 197.2855)" class="st2" width="156.8" height="39.8"/>
<path class="st12" d="M296.5,80.4c6.4,11.1,12.8,22.2,19.2,33.3c-43.7,25.2-87.4,50.5-131.1,75.7c-6.4-11.1-12.8-22.2-19.2-33.3
	C209.1,130.8,252.8,105.6,296.5,80.4z"/>
<path class="st4" d="M296.5,80.4c6.4,11.1,12.8,22.2,19.2,33.3c-43.7,25.2-87.4,50.5-131.1,75.7c-6.4-11.1-12.8-22.2-19.2-33.3
	C209.1,130.8,252.8,105.6,296.5,80.4z"/>
<rect x="172.3" y="132.5" transform="matrix(0.9659 -0.2588 0.2588 0.9659 -30.9055 70.0805)" class="st13" width="156.8" height="39.8"/>
<rect x="172.3" y="132.5" transform="matrix(0.9659 -0.2588 0.2588 0.9659 -30.9055 70.0805)" class="st2" width="156.8" height="39.8"/>
<path class="st14" d="M175,229.3c29.8,0,54-24.2,54-54c0-29.8-24.2-54-54-54s-54,24.2-54,54C121,205.2,145.2,229.3,175,229.3"/>
<g>
	<path class="st0" d="M204.6,169.4c-0.5-1.5-0.9-2.5-1-3.2c-0.3-5.9,0.1-12.4-0.2-18.5c-0.1-2.8-0.4-5.5-0.5-8.3
		c-0.1-3.7,0.2-5.6-4.9-5.6c-12.7,0.1-34.1,0.6-45.6,0.3c-5.2-0.1-6,0.1-6,4.5c-0.1,4.9,0.1,25.5-0.5,27.5c-0.5,1.5-1.1,2-1.5,3.3
		H204.6z"/>
	<path class="st0" d="M144.9,181.9c9.6,0.1,14.5-0.9,20.3,3c4.4,3,5.9,8.2,4.7,13.4c-1.7,7.4-8.7,24.2,5.1,25.9
		c8.3,1.1,10-5.6,10.1-9.6c0.3-12.6-7.8-21.1,0.8-28.7c6.1-5.4,15.2-3.8,19-4.3c1.2-3.1,1.1-5.8,0.6-7.9h-61.3c0,0.3,0,0.6,0.1,0.9
		C144.5,177.1,144.4,179.5,144.9,181.9"/>
</g>
<text transform="matrix(1 0 0 1 84.2085 313.5978)"><tspan x="0" y="0" class="st15 st16">PAINTING &amp; DECORATING </tspan><tspan x="-64.3" y="16.4" class="st15 st16">PROPERTY MAINTENANCE &amp; IMPROVEMENTS</tspan></text>
</svg>
